<?xml version="1.0" encoding="UTF-8" standalone="no"?>
<!-- Created with Inkscape (http://www.inkscape.org/) -->

<svg
   xmlns:dc="http://purl.org/dc/elements/1.1/"
   xmlns:cc="http://creativecommons.org/ns#"
   xmlns:rdf="http://www.w3.org/1999/02/22-rdf-syntax-ns#"
   xmlns:svg="http://www.w3.org/2000/svg"
   xmlns="http://www.w3.org/2000/svg"
   xmlns:sodipodi="http://sodipodi.sourceforge.net/DTD/sodipodi-0.dtd"
   xmlns:inkscape="http://www.inkscape.org/namespaces/inkscape"
   width="1920px"
   height="1080px"
   viewBox="0 0 1920 1080"
   version="1.1"
   id="SVGRoot"
   inkscape:version="0.92.3 (2405546, 2018-03-11)"
   sodipodi:docname="dibujo-1.svg">
  <sodipodi:namedview
     id="base"
     pagecolor="#ffffff"
     bordercolor="#666666"
     borderopacity="1.0"
     inkscape:pageopacity="0.0"
     inkscape:pageshadow="2"
     inkscape:zoom="0.49497475"
     inkscape:cx="395.14915"
     inkscape:cy="683.89015"
     inkscape:document-units="px"
     inkscape:current-layer="layer1"
     showgrid="true"
     inkscape:window-width="1366"
     inkscape:window-height="712"
     inkscape:window-x="0"
     inkscape:window-y="0"
     inkscape:window-maximized="1">
    <inkscape:grid
       type="xygrid"
       id="grid219" />
  </sodipodi:namedview>
  <defs
     id="defs20" />
  <metadata
     id="metadata23">
    <rdf:RDF>
      <cc:Work
         rdf:about="">
        <dc:format>image/svg+xml</dc:format>
        <dc:type
           rdf:resource="http://purl.org/dc/dcmitype/StillImage" />
        <dc:title></dc:title>
      </cc:Work>
    </rdf:RDF>
  </metadata>
  <g
     id="layer1"
     inkscape:groupmode="layer"
     inkscape:label="Capa 1">
    <text
       xml:space="preserve"
       style="font-style:normal;font-weight:normal;font-size:40px;line-height:1.25;font-family:OpenSymbol;letter-spacing:0px;word-spacing:0px;fill:#000000;fill-opacity:1;stroke:none;-inkscape-font-specification:OpenSymbol;font-stretch:normal;font-variant:normal;"
       x="565.71429"
       y="60"
       id="text52"><tspan
         sodipodi:role="line"
         id="tspan50"
         x="565.71429"
         y="95.390625"></tspan></text>
    <text
       xml:space="preserve"
       style="font-style:normal;font-weight:normal;font-size:48px;line-height:53.85000992;font-family:sans-serif;text-align:center;letter-spacing:0px;word-spacing:0px;text-anchor:middle;fill:#000000;fill-opacity:1;stroke:none"
       x="1045.6282"
       y="80"
       id="text56"><tspan
         sodipodi:role="line"
         id="tspan54"
         x="756.03961"
         y="80"
         style="font-style:normal;font-variant:normal;font-weight:bold;font-stretch:normal;font-size:74.66666412px;font-family:sans-serif;-inkscape-font-specification:'sans-serif Bold';text-anchor:end;text-align:end;fill:#1a1a1a">Flex-Direction</tspan></text>
    <rect
       style="fill:#ff0000;fill-opacity:0.04977333;stroke:#000000"
       id="rect80"
       width="145.71428"
       height="134.28572"
       x="57.714287"
       y="173.71429" />
    <rect
       style="fill:#ff0000;fill-opacity:0.04977333;stroke:#000000"
       id="rect80-8"
       width="145.71428"
       height="134.28572"
       x="236.28571"
       y="172.28572" />
    <rect
       style="fill:#ff0000;fill-opacity:0.04977333;stroke:#000000"
       id="rect80-5"
       width="145.71428"
       height="134.28572"
       x="422.00003"
       y="175.14285" />
    <rect
       style="fill:#ff0000;fill-opacity:0.04977333;stroke:#000000"
       id="rect80-7"
       width="145.71428"
       height="134.28572"
       x="599.14288"
       y="178" />
    <path
       style="fill:#ff0000;fill-opacity:0.04977333;stroke:#000000;stroke-width:1"
       d="m 60,240 v -65.71429 h 71.42857 71.42857 V 240 305.71428 H 131.42857 60 Z"
       id="path121"
       inkscape:connector-curvature="0" />
    <path
       style="fill:#ff0000;fill-opacity:0.04977333;stroke:#000000;stroke-width:1"
       d="M 237.14286,240 V 174.28571 H 308.57143 380 V 240 305.71428 h -71.42857 -71.42857 z"
       id="path123"
       inkscape:connector-curvature="0" />
    <path
       style="fill:#ff0000;fill-opacity:0.04977333;stroke:#000000;stroke-width:1"
       d="m 422.85714,242.85714 v -65.71428 h 71.42858 71.42857 v 65.71428 65.71429 h -71.42857 -71.42858 z"
       id="path125"
       inkscape:connector-curvature="0" />
    <path
       style="fill:#ff0000;fill-opacity:0.04977333;stroke:#000000;stroke-width:1"
       d="M 600,245.71428 V 180 h 71.42857 71.42857 v 65.71428 65.71429 H 671.42857 600 Z"
       id="path127"
       inkscape:connector-curvature="0" />
    <rect
       style="fill:#ff0000;fill-opacity:0.04977333;stroke:#000000"
       id="rect80-3"
       width="145.71428"
       height="134.28572"
       x="54.857147"
       y="470.85715" />
    <rect
       style="fill:#ff0000;fill-opacity:0.04977333;stroke:#000000"
       id="rect80-8-3"
       width="145.71428"
       height="134.28572"
       x="233.42856"
       y="469.42856" />
    <rect
       style="fill:#ff0000;fill-opacity:0.04977333;stroke:#000000"
       id="rect80-5-8"
       width="145.71428"
       height="134.28572"
       x="419.14288"
       y="472.28568" />
    <rect
       style="fill:#ff0000;fill-opacity:0.04977333;stroke:#000000"
       id="rect80-7-6"
       width="145.71428"
       height="134.28572"
       x="596.28577"
       y="475.14285" />
    <path
       style="fill:#ff0000;fill-opacity:0.04977333;stroke:#000000;stroke-width:1"
       d="M 57.14286,537.14286 V 471.42857 H 128.57143 200 v 65.71429 65.71428 H 128.57143 57.14286 Z"
       id="path121-0"
       inkscape:connector-curvature="0" />
    <path
       style="fill:#ff0000;fill-opacity:0.04977333;stroke:#000000;stroke-width:1"
       d="m 234.28572,537.14286 v -65.71429 h 71.42857 71.42857 v 65.71429 65.71428 h -71.42857 -71.42857 z"
       id="path123-4"
       inkscape:connector-curvature="0" />
    <path
       style="fill:#ff0000;fill-opacity:0.04977333;stroke:#000000;stroke-width:1"
       d="m 420,540 v -65.71428 h 71.42858 71.42857 V 540 605.71429 H 491.42858 420 Z"
       id="path125-8"
       inkscape:connector-curvature="0" />
    <path
       style="fill:#ff0000;fill-opacity:0.04977333;stroke:#000000;stroke-width:1"
       d="M 597.14286,542.85714 V 477.14286 H 668.57143 740 v 65.71428 65.71429 h -71.42857 -71.42857 z"
       id="path127-8"
       inkscape:connector-curvature="0" />
    <path
       style="fill:#ff0000;fill-opacity:0.04977333;stroke:#000000;stroke-width:1"
       d="m 1060,240 v -65.71428 h 71.4286 71.4285 V 240 305.71429 H 1131.4286 1060 Z"
       id="path127-89"
       inkscape:connector-curvature="0" />
    <path
       style="fill:#552200;fill-opacity:0.04977333;stroke:#000000;stroke-width:1"
       d="m 1061.4458,239.94026 v -63.63961 h 69.7005 69.7005 v 63.63961 63.63961 h -69.7005 -69.7005 z"
       id="path272"
       inkscape:connector-curvature="0" />
    <path
       style="fill:#552200;fill-opacity:0.04977333;stroke:#000000;stroke-width:1"
       d="m 1060,400 v -63.63961 h 69.7005 69.7005 V 400 463.63961 H 1129.7005 1060 Z"
       id="path272-7"
       inkscape:connector-curvature="0"
       inkscape:transform-center-x="-74.751288"
       inkscape:transform-center-y="-28.284271" />
    <path
       style="fill:#552200;fill-opacity:0.04977333;stroke:#000000;stroke-width:1"
       d="m 1061.4458,400.55452 v -62.62946 h 68.6903 68.6904 v 62.62946 62.62946 h -68.6904 -68.6903 z"
       id="path289"
       inkscape:connector-curvature="0" />
    <path
       style="fill:#ff0000;fill-opacity:0.04977333;stroke:#000000;stroke-width:1"
       d="m 1058.5542,560.05974 v -65.71428 h 71.4286 71.4285 v 65.71428 65.71429 h -71.4285 -71.4286 z"
       id="path127-89-7"
       inkscape:connector-curvature="0" />
    <path
       style="fill:#552200;fill-opacity:0.04977333;stroke:#000000;stroke-width:1"
       d="m 1060,560 v -63.63961 h 69.7005 69.7005 V 560 623.63961 H 1129.7005 1060 Z"
       id="path272-6"
       inkscape:connector-curvature="0" />
    <path
       style="fill:#552200;fill-opacity:0.04977333;stroke:#000000;stroke-width:1"
       d="m 1058.5542,720.05974 v -63.63961 h 69.7005 69.7005 v 63.63961 63.63961 h -69.7005 -69.7005 z"
       id="path272-7-4"
       inkscape:connector-curvature="0"
       inkscape:transform-center-x="-74.751288"
       inkscape:transform-center-y="-28.284271" />
    <path
       style="fill:#552200;fill-opacity:0.04977333;stroke:#000000;stroke-width:1"
       d="M 1060,720.61426 V 657.9848 h 68.6903 68.6904 v 62.62946 62.62946 H 1128.6903 1060 Z"
       id="path289-3"
       inkscape:connector-curvature="0" />
    <path
       style="fill:#ff0000;fill-opacity:0.04977333;stroke:#000000;stroke-width:1"
       d="m 1278.5542,240.05974 v -65.71428 h 71.4286 71.4285 v 65.71428 65.71429 h -71.4285 -71.4286 z"
       id="path127-89-0"
       inkscape:connector-curvature="0" />
    <path
       style="fill:#552200;fill-opacity:0.04977333;stroke:#000000;stroke-width:1"
       d="m 1280,240 v -63.63961 h 69.7005 69.7005 V 240 303.63961 H 1349.7005 1280 Z"
       id="path272-3"
       inkscape:connector-curvature="0" />
    <path
       style="fill:#552200;fill-opacity:0.04977333;stroke:#000000;stroke-width:1"
       d="m 1278.5542,400.05974 v -63.63961 h 69.7005 69.7005 v 63.63961 63.63961 h -69.7005 -69.7005 z"
       id="path272-7-0"
       inkscape:connector-curvature="0"
       inkscape:transform-center-x="-74.751288"
       inkscape:transform-center-y="-28.284271" />
    <path
       style="fill:#552200;fill-opacity:0.04977333;stroke:#000000;stroke-width:1"
       d="M 1280,400.61426 V 337.9848 h 68.6903 68.6904 v 62.62946 62.62946 H 1348.6903 1280 Z"
       id="path289-9"
       inkscape:connector-curvature="0" />
    <path
       style="fill:#ff0000;fill-opacity:0.04977333;stroke:#000000;stroke-width:1"
       d="M 1277.1084,560.11948 V 494.4052 h 71.4286 71.4285 v 65.71428 65.71429 h -71.4285 -71.4286 z"
       id="path127-89-7-2"
       inkscape:connector-curvature="0" />
    <path
       style="fill:#552200;fill-opacity:0.04977333;stroke:#000000;stroke-width:1"
       d="m 1278.5542,560.05974 v -63.63961 h 69.7005 69.7005 v 63.63961 63.63961 h -69.7005 -69.7005 z"
       id="path272-6-5"
       inkscape:connector-curvature="0" />
    <path
       style="fill:#552200;fill-opacity:0.04977333;stroke:#000000;stroke-width:1"
       d="m 1277.1084,720.11948 v -63.63961 h 69.7005 69.7005 v 63.63961 63.63961 h -69.7005 -69.7005 z"
       id="path272-7-4-4"
       inkscape:connector-curvature="0"
       inkscape:transform-center-x="-74.751288"
       inkscape:transform-center-y="-28.284271" />
    <path
       style="fill:#552200;fill-opacity:0.04977333;stroke:#000000;stroke-width:1"
       d="m 1278.5542,720.674 v -62.62946 h 68.6903 68.6904 v 62.62946 62.62946 h -68.6904 -68.6903 z"
       id="path289-3-0"
       inkscape:connector-curvature="0" />
    <path
       style="fill:#000000;fill-opacity:1;fill-rule:nonzero;stroke:none"
       id="path389"
       d="m 30.304576,234.94679 c 6.060916,0 12.121831,0 18.182746,0 1.683588,0 4.007057,1.32104 5.050763,0 3.164668,-4.00559 1.020941,-13.2528 6.060915,-14.06428 4.409849,-0.71002 3.703893,8.12926 5.555839,12.19388 7.933907,0 15.867813,0 23.801719,0 8.983519,0 17.967032,0 26.950552,0 9.09368,0 18.18735,0 27.28103,0 7.57256,0 15.14513,0 22.7177,0 6.46599,0 12.93199,0 19.39798,0 4.02568,0 8.05137,0 12.07705,0 1.26018,0 2.56177,-0.32037 3.78055,0 9.89148,2.60009 -4.09047,1.8704 7.81012,1.8704 8.10646,0 16.21292,0 24.31938,0 7.13341,-27.5014 1.73425,-17.51333 7.93801,-1.8704 0.2931,0.73907 1.59012,0 2.38519,0 2.73859,0 5.47719,0 8.21578,0 6.92336,0 13.84672,0 20.77008,0 6.9219,0 13.8438,0 20.7657,0 6.39468,0 12.78936,0 19.18404,0 6.13164,0 12.26328,0 18.39492,0 5.97152,0 11.94304,0 17.91456,0 6.14399,0 12.28798,0 18.43197,0 1.64493,-2.75853 7.2625,2.42152 9.07607,0 2.291,-3.05897 0.11194,-11.6129 3.84645,-10.80087 4.40841,0.95856 2.22243,8.93812 4.75552,12.67127 0.71915,1.05986 2.56163,0 3.84244,0 1.16166,0 2.32333,0 3.48499,0 5.79656,0 11.59311,0 17.38967,0 0.87949,0.31967 8.83105,3.03162 9.05258,2.53429 2.22729,-5.00014 -1.20232,-14.61291 4.11886,-15.89639 4.71474,-1.1372 1.96637,9.76565 4.70576,13.76787 1.00038,1.46154 3.50339,0.52318 5.25509,0.78478 2.88064,0.0817 4.17603,2.76629 6.41152,3.8818 1.14573,0.57171 7.79549,-0.78999 9.14118,-0.95786 6.22728,-0.31904 12.45361,0.15042 18.68629,0.1234 2.00014,0.30639 4.06002,-0.32502 6.0626,-0.0532 1.63533,0.22197 3.2148,0.75138 4.83487,1.06591 4.991,0.969 9.83112,1.47193 14.90587,1.46679 6.61437,-0.66178 13.23501,-0.64588 19.86825,-0.50676 7.84536,0.0695 15.69136,-0.008 23.53702,-0.008 6.25207,0.0106 12.50414,0.01 18.75621,0.008 1.57789,-1.21546 4.67018,1.40522 6.17266,-5.1e-4 1.57809,-1.47648 1.80562,-3.93428 2.89113,-5.80298 0.96813,-1.66662 2.05931,-6.28982 3.25562,-4.77861 10.68466,13.49713 -3.35635,12.4526 6.03218,12.4526 6.05793,-1.9e-4 12.11586,-1.5e-4 18.17378,-1.2e-4 0.25212,0 6.05917,2e-5 6.05918,10e-6 1.68924,-2.1395 0.22272,-6.86963 2.82745,-7.67363 2.1157,-0.65305 1.63286,4.27189 3.23214,5.80322 0.681,0.65208 1.8857,0 2.82855,0 1.0776,0 2.1552,0 3.2328,0 6.06096,0 12.12192,0 18.18288,0 6.65019,0 13.30037,0 19.95056,0 5.79785,0 11.59571,0 17.39356,0 3.96958,0 7.93917,0 11.90875,0 0,0 0,4.87216 0,4.87216 v 0 c -3.96958,0 -7.93917,0 -11.90875,0 -5.79785,0 -11.59571,0 -17.39356,0 -6.65019,0 -13.30037,0 -19.95056,0 -6.06096,0 -12.12192,0 -18.18288,0 -0.90973,0 -6.06135,0 -6.06135,0 -1.59927,1.53134 -1.11642,6.45627 -3.23212,5.80323 -2.60473,-0.80399 -1.13822,-5.53412 -2.82747,-7.67361 -1.25159,-1.58519 -4.71171,1.38731 -6.05918,-1e-5 -6.05793,-3e-5 -12.11585,-7e-5 -18.17378,1.2e-4 -9.38892,0 4.65368,-1.0445 -6.03416,12.45235 -1.19656,1.51104 -2.28719,-3.11228 -3.25503,-4.7791 -1.08514,-1.86884 -1.31201,-4.32669 -2.88973,-5.80347 -7.9e-4,-7.4e-4 -5.89104,4.5e-4 -6.17113,5e-4 -6.25255,0.002 -12.5051,0.003 -18.75765,-0.008 -7.87975,1.5e-4 -15.75986,0.0782 -23.63931,0.007 -6.60244,-0.13855 -13.18899,-0.13964 -19.77358,0.50783 -5.43883,-0.0208 -10.67103,-0.50488 -16.01393,-1.59623 -1.23975,-0.25323 -2.42557,-0.76112 -3.6787,-0.93664 -2.008,-0.28124 -4.07738,0.37347 -6.08258,0.0533 -6.03906,0.0249 -12.0701,-0.39872 -18.10476,-0.16071 -8.03292,0.99873 -10.05216,2.30179 -16.92322,-2.94757 -1.41082,-0.24348 -3.4284,-1.915 -4.23246,-0.73044 -2.82875,4.16736 10e-4,15.14098 -4.96001,14.27293 -5.40872,-0.94632 -2.11376,-10.86772 -4.31883,-15.89638 -0.14304,-0.32619 -8.32947,-1.43661 -8.85261,-2.51647 -5.79656,0 -11.59311,0 -17.38967,0 -1.16166,0 -2.32333,0 -3.48499,0 -1.28081,0 -3.12329,-1.05986 -3.84244,0 -2.53309,3.73314 -0.34711,11.71271 -4.75552,12.67126 -3.73451,0.81203 -1.55545,-7.74189 -3.84645,-10.80087 -1.81357,-2.42151 -7.43114,2.75853 -9.07607,0 -6.14399,0 -12.28798,0 -18.43197,0 -5.97152,0 -11.94304,0 -17.91456,0 -6.13164,0 -12.26328,0 -18.39492,0 -6.39468,0 -12.78936,0 -19.18404,0 -6.9219,0 -13.8438,0 -20.7657,0 -6.92336,0 -13.84672,0 -20.77008,0 -2.73859,0 -5.47719,0 -8.21578,0 -0.79507,0 -2.09209,-0.73906 -2.38519,0 -6.20376,15.64293 -0.8046,25.631 -7.93801,-1.87039 -8.10646,0 -16.21292,0 -24.31938,0 -11.90059,0 2.08136,-0.7297 -7.81012,1.87039 -1.21878,0.32037 -2.52037,0 -3.78055,0 -4.02568,0 -8.05137,0 -12.07705,0 -6.46599,0 -12.93199,0 -19.39798,0 -7.57257,0 -15.14514,0 -22.7177,0 -9.09368,0 -18.18735,0 -27.28103,0 -8.98352,0 -17.967033,0 -26.950552,0 -7.933906,0 -15.867812,0 -23.801719,0 -1.851946,4.06463 -1.14599,12.90391 -5.555839,12.19388 -5.039974,-0.81147 -2.896247,-10.05869 -6.060915,-14.06427 -1.043706,-1.32104 -3.367175,0 -5.050763,0 -6.060915,0 -12.12183,0 -18.182746,0 0,0 0,-1.13137 0,-1.13137 z"
       inkscape:connector-curvature="0" />
    <path
       style="fill:#000000;fill-opacity:1;fill-rule:nonzero;stroke:none"
       id="path391"
       d="m 680.1738,213.28248 c 5.42534,4.32763 14.18962,6.31706 16.92626,13.44521 1.52848,1.64363 -0.22479,3.74768 0.32097,5.50179 0.0617,0.19828 0.40068,0.10929 0.60101,0.16393 2.0933,1.75993 4.75446,3.03604 6.59441,5.09114 1.76931,1.97621 2.62143,4.66058 4.12886,6.827 0.84964,1.16832 3.94495,2.88554 3.68877,4.73101 -0.50593,3.64461 -2.48995,3.84499 -4.67591,6.02715 -0.92062,0.91902 -1.67479,1.99088 -2.51219,2.98632 -4.46184,6.30291 -10.26326,11.38333 -15.79944,16.68555 -4.38582,3.7943 -9.89188,5.73368 -14.37081,9.37188 0,0 -3.03709,-3.80972 -3.03709,-3.80972 v 0 c 4.42934,-3.4786 9.58731,-5.63353 14.03875,-9.08165 5.42441,-5.19029 11.11024,-10.15939 15.47188,-16.33974 0.47517,-0.54438 3.84316,-4.84019 5.35719,-5.35847 0.54072,-0.1851 0.73764,1.18087 1.3752,1.02399 -0.43063,-0.44727 -0.95355,-0.79542 -1.43032,-1.19314 -0.71357,-0.77067 -1.42714,-1.54134 -2.14071,-2.31201 -0.52328,-0.78919 -1.09632,-1.54755 -1.56984,-2.36756 -0.63301,-1.09621 -0.78027,-2.4895 -1.6249,-3.43235 -2.16362,-2.41524 -5.42994,-3.66594 -7.54773,-6.14681 -0.47309,-0.95551 -1.10707,-1.84705 -1.41929,-2.86652 -0.77412,-2.52766 1.75719,-3.30875 -0.93552,-5.80174 -1.20221,-1.11305 -13.8943,-8.93644 -14.14213,-9.09138 0,0 2.70258,-4.05388 2.70258,-4.05388 z"
       inkscape:connector-curvature="0" />
    <path
       style="fill:#000000;fill-opacity:1;fill-rule:nonzero;stroke:none"
       id="path393"
       d="m 690.94434,536.95371 c -14.14213,0 -28.28427,0 -42.42641,0 -5.21912,0 -10.43824,0 -15.65736,0 -1.51523,0 -3.05244,-0.25718 -4.54569,0 -2.28302,0.39318 -4.42868,1.36926 -6.67578,1.93258 -3.05096,0.76485 -6.14049,1.36668 -9.21074,2.05002 -14.77827,-8.21453 -7.93205,19.92182 -15.93328,18.47217 -6.76092,-1.22493 -2.06581,-14.0106 -5.79478,-19.78166 -1.3261,-2.05229 -4.87273,-0.37941 -7.31299,-0.50424 -6.41972,-0.32839 -8.0085,-0.25149 -14.29262,-0.2512 -1.94525,4.78221 -0.79034,13.25239 -5.83575,14.34662 -4.18482,0.90759 -1.66154,-8.60357 -3.94649,-12.22508 -0.66289,-1.05064 -2.48404,0.0549 -3.72628,0.0642 -5.19087,0.0389 -10.38389,-0.0337 -15.57463,-0.0628 -8.97319,0.47011 -18.58866,-0.65381 -27.50694,3e-5 -5.11267,0.37484 -10.16465,1.34153 -15.24809,2.00384 -12.11848,1.12327 -24.26937,-0.11193 -36.41521,-0.1098 -11.77341,0.17621 -23.54757,0.16514 -35.32177,0.1262 -1.34372,1.13911 -2.32,3.83573 -4.03118,3.41735 -2.08267,-0.5092 -1.8411,-4.14584 -3.65078,-5.29557 -1.31626,-0.83624 -3.11886,0.003 -4.6783,0.004 -7.21125,0.005 -14.42251,0.006 -21.63376,0.006 -2.13552,-3.3e-4 -4.9845,-1.59417 -6.40654,-9.9e-4 -3.31525,3.71421 -0.9545,12.86927 -5.8564,13.73967 -4.1865,0.74336 -2.41462,-8.2656 -4.669,-11.87075 -0.004,-0.006 -6.60227,4.1e-4 -7.26474,4.9e-4 -6.10488,2.7e-4 -12.20977,-3e-5 -18.31466,-3e-5 -8.21826,5e-5 -16.43651,4e-5 -24.65477,3e-5 -10.98472,0 -21.96944,0 -32.95417,0 -9.2155,0 -18.431,0 -27.6465,0 -5.88928,0 -11.77856,0 -17.66784,0 -1.99426,0.73714 -2.22607,3.00932 -4.17793,3.93107 -1.24894,0.5898 -2.8995,0.24672 -4,1.08135 -1.71491,1.3006 -2.03297,5.7686 -4.05324,5.02631 -2.56387,-0.94203 -2.00668,-5.08101 -3.01002,-7.62151 -6.05067,-0.91591 -12.17776,-0.24414 -18.26412,-0.1839 -0.43583,0.012 -8.94206,-0.0874 -8.94796,-0.071 -1.95775,5.42644 2.23587,15.29451 -3.27714,16.9933 -4.89939,1.50971 -0.88771,-10.36212 -2.78001,-15.12684 -0.39672,-0.99892 -2.14963,0.005 -3.22444,0.008 -6.06215,0.0147 -12.12432,0.004 -18.18648,0.003 -5.72388,8.8e-4 -11.44775,10e-4 -17.17162,10e-4 -4.58775,-2.3e-4 -9.17549,-6e-5 -13.76323,-4e-5 -4.70879,-2e-5 -9.41758,-2e-5 -14.12637,-2e-5 -4.11795,0 -8.2359,0 -12.35385,0 0,0 0,-4.87216 0,-4.87216 v 0 c 4.11795,0 8.2359,0 12.35385,0 4.70878,0 9.41757,0 14.12635,2e-5 4.58784,-2e-5 9.17568,-1.9e-4 13.76352,4e-5 5.72403,3.2e-4 11.44806,-1.7e-4 17.17209,-10e-4 6.05794,9.2e-4 12.11589,0.0117 18.17382,-0.003 1.07652,-0.003 2.8272,0.99061 3.22956,-0.008 1.91925,-4.76281 -2.0342,-16.64901 2.87242,-15.13473 5.51266,1.70131 1.27058,11.57239 3.20095,17.00908 0.008,0.0233 8.49629,0.0637 8.9274,0.071 6.14286,-0.0602 12.32646,-0.73677 18.43314,0.19491 1.38588,-2.20379 1.59489,-6.15346 4.15763,-6.61136 1.91773,-0.34265 0.8519,3.88085 1.88669,5.53139 0.28814,0.45959 1.12211,0.27258 1.62579,0.0712 1.77254,-0.70872 2.55711,-2.8981 4.15769,-3.93847 0.97182,-0.63168 2.17034,-0.81455 3.25551,-1.22183 5.88928,0 11.77856,0 17.66784,0 9.2155,0 18.431,0 27.6465,0 10.98473,0 21.96945,0 32.95418,0 8.21825,10e-6 16.4365,2e-5 24.65476,-3e-5 6.10469,0 12.20939,3e-4 18.31408,3e-5 0.66233,-8e-5 7.26242,0.005 7.26583,-4.9e-4 2.25568,-3.60461 0.4868,-12.61434 4.67331,-11.86977 4.90166,0.87175 2.53777,10.02631 5.85175,13.74164 1.42147,1.59361 4.27091,6.6e-4 6.40637,9.9e-4 7.21094,1e-5 14.42187,-9.8e-4 21.6328,-0.006 1.55975,-10e-4 3.36222,0.83164 4.67925,-0.004 1.81406,-1.15094 1.58555,-4.7904 3.67367,-5.29562 1.71381,-0.41466 2.68295,2.28871 4.02442,3.43307 11.76869,0.0389 23.53734,0.0497 35.30525,-0.12622 11.93642,1.4e-4 23.8758,1.19398 35.78615,0.15063 0.74055,-0.0965 15.33816,-2.00576 15.87132,-2.04466 8.93156,-0.65168 18.55456,0.46854 27.54046,3e-5 5.15383,0.0289 10.30993,0.10108 15.46389,0.0635 1.21503,-0.009 3.04294,0.99351 3.64467,-0.0621 2.13939,-3.7531 -0.76072,-13.17055 3.50338,-12.47763 5.0989,0.82858 4.29595,9.39606 6.44392,14.09408 6.32455,3e-4 7.90948,-0.0769 14.37046,0.25388 2.44735,0.12529 5.9111,2.50088 7.33422,0.50591 3.79737,-5.32322 -0.80443,-18.0609 5.69571,-18.77151 6.17965,-0.67557 4.43731,11.61414 6.65597,17.4212 2.74013,-0.32311 5.48026,-0.64622 8.22039,-0.96932 2.99067,-0.66354 5.9945,-1.27034 8.97201,-1.9906 2.67144,-0.64622 5.26112,-1.65158 7.97143,-2.10802 1.49419,-0.25164 3.03046,0 4.54569,0 5.21912,0 10.43824,0 15.65736,0 14.14214,0 28.28428,0 42.42641,0 0,0 0,4.87216 0,4.87216 z"
       inkscape:connector-curvature="0" />
    <path
       style="fill:#000000;fill-opacity:1;fill-rule:nonzero;stroke:none"
       id="path395"
       d="m 129.70001,517.72766 c -10.07616,3.8428 -5.1322,1.66355 -14.46332,6.34195 -1.34613,0.67492 -2.77883,1.19843 -4.04061,2.02031 -1.41572,0.92214 -3.40809,3.08158 -4.7631,4.30378 -0.79151,0.33514 -1.53303,0.83023 -2.37453,1.00542 -0.89619,0.18658 -1.83036,0.0403 -2.74555,0.0605 -1.10599,-0.1088 -2.227027,-0.53833 -3.317964,-0.32641 -1.401665,0.27227 -7.23166,3.6545 -9.299224,4.49306 -4.320466,0.30517 -2.394277,-0.0475 -5.579887,0.76694 -0.688898,0.17612 -1.974612,1.23006 -2.06752,0.5251 -0.103828,-0.78781 1.168773,-1.26319 1.957395,-1.36069 0.439841,-0.0544 0.574709,0.67481 0.862222,1.01209 0.304986,0.35777 0.610184,0.71536 0.915276,1.07304 0.306728,0.68496 0.525596,1.41648 0.920184,2.05488 1.498358,2.42418 2.544409,2.34894 3.552856,5.41993 0.473532,1.44203 1.508419,9.1128 1.890445,10.71602 0.369284,1.54974 0.964428,3.03681 1.446642,4.55522 1.536152,3.65856 4.926284,4.21415 7.830255,6.31002 2.05004,1.47958 2.70959,2.3474 4.4485,4.17841 0.88215,0.64668 1.7643,1.29336 2.64644,1.94005 0,0 -2.92363,3.89747 -2.92363,3.89747 v 0 c -1.09056,-0.83311 -2.18112,-1.66623 -3.27168,-2.49934 -1.14201,-1.22828 -2.076812,-2.36225 -3.434063,-3.35551 -3.963773,-2.90074 -8.014018,-3.72512 -9.946313,-9.01822 -1.804359,-5.86041 -1.609909,-4.41915 -2.483722,-10.44114 -0.186843,-1.28765 -0.06532,-2.63257 -0.440361,-3.87848 -0.480106,-1.59494 -3.132184,-4.87977 -3.865452,-6.0824 -0.12502,-0.20504 -0.09155,-0.4715 -0.137319,-0.70725 -0.836895,-1.04738 -2.886228,-3.3816 -2.854998,-4.65843 0.121265,-4.95789 5.113223,-5.08188 8.720445,-4.96947 3.879041,-1.5365 7.429838,-4.02381 11.598307,-4.81928 1.637906,-0.31256 3.099616,0.59092 4.693946,0.487 1.80652,-1.62265 3.87401,-3.74824 5.8435,-5.04013 1.25913,-0.82593 2.69303,-1.34829 4.04061,-2.02031 9.96384,-4.96878 4.81637,-2.71849 15.84125,-6.79003 0,0 0.80097,4.80587 0.80097,4.80587 z"
       inkscape:connector-curvature="0" />
    <path
       style="fill:#000000;fill-opacity:1;fill-rule:nonzero;stroke:none"
       id="path397"
       d="m 1126.0944,735.65083 c -3.9823,-7.18517 -6.968,-14.83815 -10.1735,-22.38054 -0.9939,-2.33861 -2.2871,-4.54677 -3.211,-6.91388 -0.6891,-1.76519 -1.1891,-3.59841 -1.7837,-5.39762 -1.4323,-3.42083 -2.3434,-5.06134 -3.0061,-8.71778 -0.1971,-1.08732 0.1096,-2.2501 -0.2078,-3.30856 -0.1983,-0.66125 -0.8775,-1.06776 -1.2741,-1.63281 -0.5238,-0.74634 -1.1319,-1.45668 -1.4846,-2.29754 -0.5083,-1.21178 -0.7137,-2.52939 -1.0705,-3.79409 -1.9785,-4.24222 -0.9645,-9.17817 -2.5438,-13.47898 -0.6773,-1.84437 -2.8286,-4.95013 -3.8107,-6.47275 -25.1385,0.76138 -12.6577,3.23487 -2.1821,-9.11691 0.7645,-0.90145 -1.1703,-2.06463 -1.5897,-3.16972 -0.8392,-2.21125 -1.1376,-4.99738 -1.5377,-7.32168 -0.9241,-2.04367 0.5472,-4.32841 -0.015,-6.37931 -0.3162,-1.1544 -1.1642,-2.09254 -1.7916,-3.11189 -0.6001,-0.97506 -0.7697,-2.62764 -1.889,-2.86867 -3.8587,-0.83099 -9.0269,2.67939 -11.8413,-0.0882 -1.9611,-1.92836 3.6459,-4.11878 5.4688,-6.17816 0.9632,-0.54459 2.2452,-0.73423 2.8895,-1.63377 0.3436,-0.47964 -0.4201,-1.11264 -0.5042,-1.69658 -0.2036,-1.41362 0.01,-2.88822 -0.3552,-4.26989 -0.8121,-3.10286 -3.4553,-7.36247 -4.6493,-10.81632 -1.0053,-3.97721 1.6914,-7.87816 1.1341,-11.83617 -0.2621,-1.86112 -1.3264,-3.51723 -2.0047,-5.27008 -1.6542,-6.25852 -0.1578,-12.67329 -0.1324,-19.03632 -0.198,-6.06605 -0.1818,-12.13359 -0.1437,-18.2017 0.3782,-1.32046 0.7204,-2.65176 1.1346,-3.96138 1.0157,-3.21153 1.206,-2.42534 1.4265,-5.6958 0.1232,-1.82748 -0.4406,-3.66304 -0.281,-5.48769 0.1092,-1.24766 0.556,-2.44237 0.834,-3.66356 1.2073,-3.34571 1.2593,-6.91426 2.4564,-10.27032 1.1897,-3.33518 3.1251,-6.68726 4.6914,-9.87817 0.9184,-2.62357 0.4366,-4.97855 1.2604,-7.75151 0.4524,-1.5225 2.4985,-2.9488 1.8412,-4.39469 -7.6175,-16.75795 -7.0945,0.41675 -6.7686,-10.85941 4.0574,1.05636 8.0014,2.74281 12.1724,3.16907 0.6367,0.0651 -0.1606,-1.31803 0.059,-1.91902 0.4063,-1.11013 1.173,-2.05285 1.7683,-3.0742 2.0189,-3.46402 2.3933,-4.90234 2.3423,-8.90149 -2.0292,-2.7138 1.375,-7.02239 1.0045,-9.5136 -0.2588,-1.74022 -1.1952,-3.32203 -2.0185,-4.87686 -2.4046,-4.54111 -12.0767,-10.77305 -7.6504,-13.38302 4.777,-2.8168 8.8149,6.73166 13.2223,10.09748 -2.1568,-5.63268 0.1576,-10.94714 1.1299,-16.51125 0.9664,-1.81891 3.5168,-6.35502 4.1843,-8.53083 0.3665,-1.19466 0.3404,-2.4781 0.5991,-3.70063 0.6225,-2.94207 1.315,-5.37056 1.3337,-8.38908 0.4172,-2.87049 2.9322,-4.57834 4.0468,-7.04724 0.3576,-0.79215 0.3251,-1.7101 0.5652,-2.54543 0.9268,-3.22548 1.4922,-5.06322 1.5188,-8.44702 0.7532,-4.22075 0.7699,-5.8167 2.7106,-9.87899 2.2883,-4.79027 4.7253,-5.69368 3.631,-11.10751 0.1332,-1.42939 0.018,-2.90425 0.3996,-4.28817 0.9127,-3.30981 2.073,-3.87502 3.4212,-6.62095 1.7873,-3.64014 2.2149,-7.01645 2.2729,-11.00941 -1.8844,-3.01341 4.1221,-10.09528 4.1417,-12.66159 0,-0.51666 -0.1766,-1.01815 -0.2649,-1.52723 0.2116,-1.40969 0.4233,-2.81939 0.635,-4.22909 1.9579,-9.82913 0.6277,2.94028 -13.286,-8.12829 -1.9495,-1.55088 5.0017,-0.13734 7.4493,-0.60092 15.0435,-2.84921 7.0047,0.58847 8.5386,-5.64059 0.368,-1.49406 1.3214,-2.77928 1.9821,-4.16892 0.5572,-0.91817 2.739,-4.18242 3.0476,-5.66031 0.4507,-2.15804 -1.0173,-8.59722 -1.2485,-11.18137 -21.0977,-12.96385 -12.3588,-4.77396 0.3868,-7.20092 1.1208,-0.21342 0.1119,-9.8567 0.01,-10.90259 -0.1437,-4.69292 -0.8403,-9.59116 1.0492,-14.06773 0.4211,-0.99753 3.0153,-4.90179 3.8908,-6.23985 0.041,-0.60242 0.1523,-1.20407 0.1242,-1.80726 -0.078,-1.67914 -0.5522,-3.31648 -0.7932,-4.98007 -0.4693,-3.23938 -0.5364,-6.38722 -0.4648,-9.65355 0.2108,-3.98746 0.276,-7.97773 0.2367,-11.96995 -0.01,-0.73382 0.154,-1.49143 -0.032,-2.20134 -0.081,-0.30936 -0.4752,-0.4281 -0.7128,-0.64215 -0.3319,-0.5623 -0.6638,-1.1246 -0.9957,-1.68691 -0.2519,-0.80805 -0.3651,-1.67333 -0.7558,-2.42417 -4.0649,-7.81163 0.9764,4.62785 -3.5357,-5.48542 -0.3079,-0.69022 -1.6552,-5.47312 -1.8713,-6.22512 -1.5034,-3.91141 0.3775,-8.02759 -1.2156,-11.89003 -0.3928,-0.95229 -1.0829,-1.75271 -1.6243,-2.62906 0,0 4.309,-2.4407 4.309,-2.4407 v 0 c 0.7209,1.3523 1.653,2.61171 2.1628,4.05689 1.3811,3.91508 0.1164,7.62538 1.1277,11.53536 0.49,1.70543 0.6956,3.50889 1.41,5.13315 1.0142,2.30605 2.8591,4.44021 4.0125,6.63246 0.1932,0.36722 0.082,0.83923 0.2459,1.2203 0.2701,0.62669 0.6933,1.17563 1.0399,1.76345 0.4517,1.00342 1.0741,1.94633 1.355,3.01024 0.191,0.72306 0.025,1.4955 0.032,2.24332 0.039,4.04062 -0.025,8.07953 -0.238,12.11532 -0.074,2.97076 -0.021,5.81151 0.4045,8.75884 0.2171,1.50433 0.9156,5.06256 0.777,6.63448 -0.1097,1.24271 -0.5698,2.42914 -0.8547,3.64372 -1.0704,1.63535 -2.4283,3.10359 -3.2673,4.86888 -1.8119,3.81225 -0.9098,8.18874 -0.8892,12.23168 0.3148,3.13907 0.8308,6.37678 0.4337,9.53483 -0.1556,1.23737 -1.6288,2.77499 -0.7547,3.66443 8.0097,8.1496 21.9807,6.75651 -3.8728,5.2991 0.2807,3.16689 1.7805,8.86701 1.1567,11.73856 -0.3301,1.51946 -2.4363,4.66582 -3.0688,5.70537 -0.1935,0.37391 -3.6319,5.52474 -1.6944,6.78257 2.638,1.71248 6.1912,1.40041 9.0142,2.78676 2.7083,1.33005 9.7222,3.37128 7.3679,5.25838 -3.8423,3.07978 -9.9936,-0.58014 -14.7579,0.66496 -1.1077,0.28947 -0.449,2.24524 -0.6735,3.36786 -2.1801,11.56983 0.8879,-5.85313 -0.5179,6.38895 -0.4584,3.9922 -4.9377,6.90308 -3.9275,11.33116 -0.1638,4.88902 -0.8028,9.01042 -2.9802,13.45617 -0.1231,0.25121 -2.6676,4.39334 -2.7448,4.61886 -0.3211,0.93768 -0.2848,1.9617 -0.4272,2.94256 0.1511,1.17709 0.4636,2.34456 0.4534,3.53127 -0.057,6.66407 -7.0381,11.32941 -6.7358,18.32492 -0.1749,6.40608 -1.6992,13.19021 -6.1306,18.02911 -0.081,3.26456 -0.7013,6.03827 -1.4138,9.20261 -1.0543,4.68193 -1.7221,8.29208 -4.7822,12.22446 -0.2223,1.20308 -0.3833,2.41914 -0.667,3.60924 -0.1918,0.80475 -1.5166,4.59703 -1.5354,5.52649 -0.1736,8.57491 1.5186,-2.90058 0.9128,6.7 -0.061,0.96724 -0.5129,1.86927 -0.7693,2.8039 19.7129,25.79455 9.7321,10.19317 -1.4106,4.7365 -1.5285,-0.74855 -3.6374,-0.24942 -5.0598,0.68529 -0.9107,0.59846 -0.5507,2.10892 -0.8048,3.16862 -0.8622,3.5947 -0.6763,1.97428 -0.1649,6.05848 0.01,2.85702 0.2584,3.88961 -0.8576,6.70804 -0.4696,1.18601 -4.8991,5.99292 -3.3683,7.54578 3.1325,3.17756 6.997,5.53882 10.4955,8.30822 -8.296,5.41815 5.8582,-2.97357 -12.4351,1.00989 -1.838,0.40024 -2.0285,8.01322 -2.3051,9.49464 -0.1829,0.9801 -0.5939,1.90356 -0.8909,2.85533 -1.4119,2.87525 -3.2474,5.90943 -4.3359,8.91084 -1.2193,3.36206 -1.2382,6.98226 -2.4735,10.33614 -1.1684,3.42082 -0.1202,5.15574 -0.4429,8.62869 -0.3085,3.31988 -0.5605,3.5453 -1.5977,6.42774 -0.3003,0.83454 -0.6034,1.66807 -0.9051,2.5021 -0.038,6.06578 -0.052,12.13081 0.1437,18.19457 -0.032,5.75599 -1.2775,11.54635 -0.1972,17.23554 0.8837,2.31272 2.0253,4.96083 2.3202,7.42154 0.3975,3.31688 -1.2324,6.5949 -1.3833,9.86795 1.3729,4.12591 3.7741,7.84484 4.9008,12.06705 0.2761,1.03451 0.014,2.14784 0.1637,3.20798 0.431,3.04304 1.4349,2.49951 4.5393,4.62584 1.8403,-0.20399 6.6384,-2.08828 5.5209,-0.61197 -2.364,3.12292 -7.3354,3.38525 -9.8765,6.36586 -0.7627,0.8946 1.345,1.93161 1.9364,2.94759 2.8272,4.85687 1.688,4.6026 1.9286,9.84276 0.1916,1.12143 1.7294,10.00527 2.9972,10.12598 17.0886,1.62694 25.5546,-7.47081 5.4275,6.96662 1.6983,2.6728 3.4498,5.07466 4.4876,8.11132 1.4743,4.31367 0.6464,9.10857 2.5148,13.3532 0.1378,0.7556 0.1133,1.55973 0.4132,2.26682 2.6293,6.19889 0.829,-2.02572 3.5548,6.42371 0.23,0.71306 -0.08,1.50853 0.045,2.24729 0.5753,3.40194 1.5647,5.16702 2.9285,8.4548 1.4549,4.5644 3.0087,7.58953 4.8543,11.93217 3.1605,7.43641 6.0945,14.98589 10.0296,22.06617 0,0 -4.492,2.246 -4.492,2.246 z"
       inkscape:connector-curvature="0" />
    <path
       style="fill:#000000;fill-opacity:1;fill-rule:nonzero;stroke:none"
       id="path399"
       d="m 1122.8338,231.47186 c 0,-4.71404 0,-9.42809 0,-14.14213 0,-1.34687 -0.193,-2.70764 0,-4.04061 0.3998,-2.76061 1.8555,-4.78877 2.6525,-7.34901 -0.6457,-5.82585 -0.8236,-11.66205 -0.6947,-17.51788 -0.07,-7.40099 2.6152,-11.04912 10.7722,-8.19223 3.965,1.38868 6.0257,3.89418 8.8971,6.64515 1.3238,0.65278 2.0262,2.19304 3.3044,2.91808 0.1122,0.0636 0.2015,-0.16109 0.3022,-0.24163 0.7087,0.28164 1.5269,0.37315 2.1261,0.84493 1.1787,0.92819 1.926,2.30881 3.0074,3.3488 0,0 -3.5679,3.43432 -3.5679,3.43432 v 0 c -0.4882,-0.52962 -1.0903,-0.97352 -1.4648,-1.58885 -0.1101,-0.18086 0.2655,-0.47225 0.1179,-0.62411 -0.9372,-0.96478 -2.5852,-0.80136 -3.7707,-1.43673 -0.5525,-0.29612 -0.9496,-0.81868 -1.4189,-1.23428 -0.7047,-0.62415 -1.4021,-1.25659 -2.1032,-1.88489 -3.4824,-3.51805 -2.2263,-2.65335 -6.7129,-5.39775 -4.6466,-2.84228 -4.4482,-1.49603 -4.5379,3.51922 -0.1425,6.35126 0.4538,12.6428 0.4417,18.97388 -0.6302,1.8133 -2.134,3.90118 -2.3983,5.78298 -0.1873,1.33378 0,2.69374 0,4.04061 0,4.71404 0,9.42809 0,14.14213 0,0 -4.9522,0 -4.9522,0 z"
       inkscape:connector-curvature="0" />
    <path
       style="fill:#000000;fill-opacity:1;fill-rule:nonzero;stroke:none"
       id="path401"
       d="m 1354.0602,221.37034 c 0,10.52242 0,21.04484 0,31.56726 0,7.1763 0,14.35259 0,21.52888 0,5.94911 0,11.89823 0,17.84734 0.01,0.74326 -0.013,9.50564 0,9.5126 3.4006,1.84146 12.3646,-0.88063 11.2528,2.8233 -14.2995,3.51211 -12.9462,-1.27383 -13.1632,7.02569 0,4.96765 0,9.9353 0,14.90296 0,1.49917 -1.0357,3.41364 0,4.49753 2.0738,2.17032 5.3906,2.64302 8.086,3.96453 -2.0469,1.24535 -4.7397,1.79232 -6.1406,3.73606 -0.9324,1.29378 0,3.18951 0,4.78426 0,6.16095 0,12.32189 0,18.48284 0,8.2752 0,16.5504 0,24.8256 0,8.36148 0,16.72295 0,25.08443 0,6.63661 0,13.27323 0,19.90985 0,7.50863 0,15.01726 0,22.52589 -3.0813,4.18497 3.5976,6.81221 2.9239,10.32531 -0.4131,2.15415 -3.7302,2.55149 -4.8693,4.42592 -0.2491,0.40996 0,10.32744 0,11.61202 0,1.48312 0,2.96624 0,4.44936 0,2.73418 -0.8671,6.31954 2.3182,8.10378 2.8897,1.61863 9.6067,-0.17199 9.4287,3.13535 -11.017,4.97676 -9.8365,0.84563 -9.8365,8.32947 0,7.06003 0,14.12006 0,21.18009 0,7.11433 0,14.22866 0,21.343 0,7.35008 0,14.70017 0,22.05025 0,6.66528 0,13.33056 0,19.99584 0,7.12458 0,14.24916 0,21.37374 0.2846,4.08629 -1.5966,9.48739 2.6042,12.33642 2.2785,1.54526 9.2501,0.8715 7.6503,3.11204 -2.4369,3.41317 -8.1099,2.14069 -12.1649,3.21103 0.4136,2.74998 -0.5499,5.78002 0,8.50263 0.146,0.72307 0.6827,1.31037 0.9597,1.99409 1.3534,3.3417 1.029,2.91881 1.5607,6.80355 0,1.14208 -0.1047,2.28943 0,3.42624 0.1428,1.48086 0.4998,2.93319 0.7497,4.39979 4.1619,1.00296 10.9935,-1.0037 12.4856,3.00886 1.2526,3.36845 -6.7766,2.81688 -9.4096,5.26282 -0.8464,0.7862 0.049,2.31082 0.014,3.46546 -0.026,0.87163 -0.1314,1.7391 -0.1971,2.60865 0.1228,3.35109 -1.4514,7.58929 0.6322,10.59007 0.8914,1.28378 2.1868,2.23858 3.1819,3.44379 0.3255,0.86784 0.8601,1.68398 0.9764,2.60352 0.2959,2.33991 -0.4027,4.62307 -0.7166,6.89924 -0.4417,3.20275 -0.4762,6.31569 -0.4078,9.53825 0.3564,5.68258 0.2454,11.37626 0.1844,17.06501 0.3656,3.5543 -0.5346,7.31509 0.011,10.84469 0.1252,0.81085 0.5909,1.53083 0.8864,2.29624 0,0 -4.7707,1.56944 -4.7707,1.56944 v 0 c -0.3793,-1.28567 -0.9313,-2.53257 -1.1379,-3.857 -0.5535,-3.54827 0.3619,-7.3338 -0.01,-10.90719 0.06,-5.63775 0.1709,-11.2802 -0.1838,-16.91183 -0.099,-5.37515 0.3942,-10.67712 1.2942,-15.94561 -0.6284,-0.76341 -3.96,-4.80373 -4.0312,-4.93486 -2.1278,-3.9182 -1.0335,-8.48831 -0.9146,-12.68692 0.042,-0.50868 0.4693,-5.024 0.1955,-5.15565 -3.1097,-1.49482 -10.4878,1.49466 -10.1673,-1.9407 0.3975,-4.26083 7.3136,-4.44546 10.9704,-6.6682 -0.2552,-1.52929 -0.6163,-3.04464 -0.7655,-4.58787 -0.1051,-1.08701 0,-2.18416 0.01,-3.27623 -0.5147,-3.94417 -0.1447,-3.07457 -1.4697,-6.48633 -0.3235,-0.83278 -0.8828,-1.58584 -1.0607,-2.46132 -0.553,-2.72125 0.4159,-5.75366 0,-8.50263 -4.055,-1.07034 -9.728,0.20214 -12.1649,-3.21103 -1.5998,-2.24054 5.3719,-1.56678 7.6503,-3.11204 4.2008,-2.84903 2.3196,-8.25013 2.6042,-12.33642 0,-7.12458 0,-14.24916 0,-21.37374 0,-6.66528 0,-13.33056 0,-19.99584 0,-7.35008 0,-14.70017 0,-22.05025 0,-7.11434 0,-14.22867 0,-21.343 0,-7.06003 0,-14.12006 0,-21.18009 0,-7.48384 1.1805,-3.35271 -9.8365,-8.32947 -0.178,-3.30734 6.539,-1.51672 9.4287,-3.13535 3.1853,-1.78424 2.3182,-5.3696 2.3182,-8.10378 0,-1.48312 0,-2.96624 0,-4.44936 0,-1.28458 0.2492,-11.20206 0,-11.61202 -1.1391,-1.87443 -4.4562,-2.27177 -4.8693,-4.42592 -0.6737,-3.5131 6.0052,-6.14034 2.9239,-10.32531 0,-7.50863 0,-15.01726 0,-22.52589 0,-6.63662 0,-13.27324 0,-19.90985 0,-8.36148 0,-16.72295 0,-25.08443 0,-8.2752 0,-16.5504 0,-24.8256 0,-6.16095 0,-12.32189 0,-18.48284 0,-1.59475 0.9324,-3.49048 0,-4.78426 -1.4009,-1.94374 -4.0937,-2.49071 -6.1406,-3.73606 2.6954,-1.32151 6.0122,-1.79421 8.086,-3.96453 1.0357,-1.08389 0,-2.99836 0,-4.49753 0,-4.96766 0,-9.93531 0,-14.90296 -0.217,-8.29952 1.1363,-3.51358 -13.1632,-7.02569 -1.1118,-3.70393 7.8522,-0.98184 11.2528,-2.8233 0.013,-0.007 -0.01,-8.76934 0,-9.5126 0,-5.94911 0,-11.89823 0,-17.84734 0,-7.17629 0,-14.35258 0,-21.52888 0,-10.52242 0,-21.04484 0,-31.56726 0,0 4.9522,0 4.9522,0 z"
       inkscape:connector-curvature="0" />
    <path
       style="fill:#000000;fill-opacity:1;fill-rule:nonzero;stroke:none"
       id="path403"
       d="m 1338.6778,731.38452 c 3.2312,5.95659 3.0236,14.17899 7.5104,19.57512 0.1718,0.20663 1.5558,-0.017 1.7104,0.0227 0.8506,0.21817 1.6477,0.60798 2.4715,0.91197 1.8624,2.23275 2.4839,2.53499 3.4215,5.17359 0.3418,0.96166 0.3277,2.03822 0.7444,2.96986 0.4259,0.95247 1.1637,1.73218 1.7457,2.5981 2.8435,4.22992 2.0238,5.51609 3.0035,3.45509 -0.913,-0.18121 -2.425,0.33261 -2.7389,-0.54363 -0.5907,-1.6495 1.6464,-11.67422 1.8489,-12.62966 0.7639,-3.60416 1.2012,-7.1814 2.5317,-10.59673 0.1901,-0.69593 0.2424,-1.44523 0.5704,-2.0878 4.9841,-9.76465 0.079,1.7425 5.5377,-8.33635 0.6835,-1.26201 0.9282,-2.72134 1.5257,-4.02627 2.9918,-5.69334 1.7383,-3.08921 3.8612,-7.76319 0.4897,-0.76927 1.1076,-1.47062 1.4692,-2.30783 0.2137,-0.4949 0.1463,-1.0682 0.2194,-1.6023 0.3421,-0.91622 0.5617,-1.88802 1.0262,-2.74868 1.6171,-2.9962 4.5058,-5.21512 6.6415,-7.88415 0.877,-0.75392 1.7539,-1.50784 2.6309,-2.26175 0,0 3.2233,3.85134 3.2233,3.85134 v 0 c -0.6522,0.52593 -1.3045,1.05187 -1.9567,1.5778 -0.8774,1.06596 -1.6938,2.18521 -2.6322,3.19787 -1.3943,1.50459 -2.2041,1.56118 -3.2158,3.31265 -1.0251,1.77453 -0.9297,3.37034 -1.7279,5.2975 -0.2535,0.61219 -0.7386,1.10028 -1.1079,1.65041 -2.182,4.77235 -0.9479,2.25169 -3.7628,7.53214 -0.7683,1.64713 -1.2086,3.44411 -2.072,5.04341 -1.3255,2.45521 -3.5691,4.34769 -4.8282,6.83764 -0.4228,0.83618 -0.5247,1.79905 -0.787,2.69858 -1.4168,2.78669 -0.2534,0.11402 -1.1612,5.02086 -1.1314,6.1151 -1.3153,3.81401 -2.3473,10.89114 -1.2819,8.79043 1.265,3.59398 -3.9766,10.74669 -1.0741,-0.49218 -2.3619,-0.66685 -3.2223,-1.47654 -0.8232,-0.77465 -4.6716,-7.17204 -5.1921,-8.31704 -0.2751,-0.60494 -0.1812,-1.32447 -0.3921,-1.95463 -0.8942,-2.67178 -1.2046,-1.18715 -0.7454,-2.6551 -2.4303,-1.11356 -4.7512,-0.79759 -6.6772,-3.10595 -4.549,-5.45223 -4.5892,-13.70191 -7.6419,-19.82083 0,0 4.492,-2.24601 4.492,-2.24601 z"
       inkscape:connector-curvature="0" />
  </g>
</svg>
